<mxfile host="app.diagrams.net" agent="Mozilla/5.0 (Windows NT 10.0; Win64; x64) AppleWebKit/537.36 (KHTML, like Gecko) Chrome/131.0.0.0 Safari/537.36" version="25.0.3" pages="2">
  <diagram name="Page-1" id="l-oOrjBne4iH-0Gxsmsv">
    <mxGraphModel grid="1" page="1" gridSize="10" guides="1" tooltips="1" connect="1" arrows="1" fold="1" pageScale="1" pageWidth="850" pageHeight="1100" math="0" shadow="0">
      <root>
        <mxCell id="0" />
        <mxCell id="1" parent="0" />
        <mxCell id="oHP2g1kHN_vgtaO5IObZ-1" value="Customer" style="shape=umlActor;verticalLabelPosition=bottom;verticalAlign=top;html=1;outlineConnect=0;" vertex="1" parent="1">
          <mxGeometry x="160" y="320" width="30" height="60" as="geometry" />
        </mxCell>
        <mxCell id="SBfz5LhnC69azBQIG-Eq-19" style="rounded=0;orthogonalLoop=1;jettySize=auto;html=1;exitX=0;exitY=0.3333333333333333;exitDx=0;exitDy=0;exitPerimeter=0;endArrow=none;endFill=0;" edge="1" parent="1" source="oHP2g1kHN_vgtaO5IObZ-2" target="SBfz5LhnC69azBQIG-Eq-2">
          <mxGeometry relative="1" as="geometry" />
        </mxCell>
        <mxCell id="SBfz5LhnC69azBQIG-Eq-20" style="rounded=0;orthogonalLoop=1;jettySize=auto;html=1;exitX=0.5;exitY=0.5;exitDx=0;exitDy=0;exitPerimeter=0;entryX=1;entryY=0.5;entryDx=0;entryDy=0;endArrow=none;endFill=0;" edge="1" parent="1" source="oHP2g1kHN_vgtaO5IObZ-2" target="SBfz5LhnC69azBQIG-Eq-3">
          <mxGeometry relative="1" as="geometry" />
        </mxCell>
        <mxCell id="SBfz5LhnC69azBQIG-Eq-21" style="rounded=0;orthogonalLoop=1;jettySize=auto;html=1;exitX=0;exitY=1;exitDx=0;exitDy=0;exitPerimeter=0;entryX=1;entryY=0;entryDx=0;entryDy=0;endArrow=none;endFill=0;" edge="1" parent="1" source="oHP2g1kHN_vgtaO5IObZ-2" target="SBfz5LhnC69azBQIG-Eq-4">
          <mxGeometry relative="1" as="geometry" />
        </mxCell>
        <mxCell id="SBfz5LhnC69azBQIG-Eq-22" style="rounded=0;orthogonalLoop=1;jettySize=auto;html=1;exitX=0;exitY=1;exitDx=0;exitDy=0;exitPerimeter=0;entryX=1;entryY=0.5;entryDx=0;entryDy=0;endArrow=none;endFill=0;" edge="1" parent="1" source="oHP2g1kHN_vgtaO5IObZ-2" target="SBfz5LhnC69azBQIG-Eq-5">
          <mxGeometry relative="1" as="geometry" />
        </mxCell>
        <mxCell id="SBfz5LhnC69azBQIG-Eq-24" style="rounded=0;orthogonalLoop=1;jettySize=auto;html=1;exitX=1;exitY=1;exitDx=0;exitDy=0;exitPerimeter=0;entryX=1;entryY=0.5;entryDx=0;entryDy=0;endArrow=none;endFill=0;" edge="1" parent="1" source="oHP2g1kHN_vgtaO5IObZ-2" target="SBfz5LhnC69azBQIG-Eq-23">
          <mxGeometry relative="1" as="geometry" />
        </mxCell>
        <mxCell id="oHP2g1kHN_vgtaO5IObZ-2" value="Cashier" style="shape=umlActor;verticalLabelPosition=bottom;verticalAlign=top;html=1;outlineConnect=0;" vertex="1" parent="1">
          <mxGeometry x="690" y="320" width="30" height="60" as="geometry" />
        </mxCell>
        <mxCell id="oHP2g1kHN_vgtaO5IObZ-3" value="OneStopShop till system" style="swimlane;whiteSpace=wrap;html=1;" vertex="1" parent="1">
          <mxGeometry x="240" y="160" width="400" height="420" as="geometry" />
        </mxCell>
        <mxCell id="SBfz5LhnC69azBQIG-Eq-1" value="Scan Items" style="ellipse;whiteSpace=wrap;html=1;" vertex="1" parent="oHP2g1kHN_vgtaO5IObZ-3">
          <mxGeometry x="220" y="40" width="90" height="40" as="geometry" />
        </mxCell>
        <mxCell id="SBfz5LhnC69azBQIG-Eq-2" value="Remove an Item" style="ellipse;whiteSpace=wrap;html=1;" vertex="1" parent="oHP2g1kHN_vgtaO5IObZ-3">
          <mxGeometry x="270" y="130" width="110" height="40" as="geometry" />
        </mxCell>
        <mxCell id="SBfz5LhnC69azBQIG-Eq-3" value="Apply Discount" style="ellipse;whiteSpace=wrap;html=1;" vertex="1" parent="oHP2g1kHN_vgtaO5IObZ-3">
          <mxGeometry x="275" y="200" width="100" height="40" as="geometry" />
        </mxCell>
        <mxCell id="SBfz5LhnC69azBQIG-Eq-4" value="Search Expiry Date" style="ellipse;whiteSpace=wrap;html=1;" vertex="1" parent="oHP2g1kHN_vgtaO5IObZ-3">
          <mxGeometry x="220" y="250" width="130" height="40" as="geometry" />
        </mxCell>
        <mxCell id="SBfz5LhnC69azBQIG-Eq-5" value="View Perishable stock" style="ellipse;whiteSpace=wrap;html=1;" vertex="1" parent="oHP2g1kHN_vgtaO5IObZ-3">
          <mxGeometry x="210" y="300" width="140" height="40" as="geometry" />
        </mxCell>
        <mxCell id="SBfz5LhnC69azBQIG-Eq-7" value="Add vegetable item" style="ellipse;whiteSpace=wrap;html=1;" vertex="1" parent="oHP2g1kHN_vgtaO5IObZ-3">
          <mxGeometry x="40" y="30" width="120" height="40" as="geometry" />
        </mxCell>
        <mxCell id="SBfz5LhnC69azBQIG-Eq-8" value="Add fruit item" style="ellipse;whiteSpace=wrap;html=1;" vertex="1" parent="oHP2g1kHN_vgtaO5IObZ-3">
          <mxGeometry x="50" y="80" width="110" height="40" as="geometry" />
        </mxCell>
        <mxCell id="SBfz5LhnC69azBQIG-Eq-9" value="Add drink item" style="ellipse;whiteSpace=wrap;html=1;" vertex="1" parent="oHP2g1kHN_vgtaO5IObZ-3">
          <mxGeometry x="80" y="130" width="100" height="40" as="geometry" />
        </mxCell>
        <mxCell id="SBfz5LhnC69azBQIG-Eq-10" value="Add tobacco item" style="ellipse;whiteSpace=wrap;html=1;" vertex="1" parent="oHP2g1kHN_vgtaO5IObZ-3">
          <mxGeometry x="135" y="170" width="130" height="40" as="geometry" />
        </mxCell>
        <mxCell id="SBfz5LhnC69azBQIG-Eq-12" value="" style="endArrow=diamondThin;endFill=0;endSize=24;html=1;rounded=0;entryX=0;entryY=0.5;entryDx=0;entryDy=0;exitX=1;exitY=0.5;exitDx=0;exitDy=0;" edge="1" parent="oHP2g1kHN_vgtaO5IObZ-3" source="SBfz5LhnC69azBQIG-Eq-7" target="SBfz5LhnC69azBQIG-Eq-1">
          <mxGeometry width="160" relative="1" as="geometry">
            <mxPoint x="130" y="250" as="sourcePoint" />
            <mxPoint x="290" y="250" as="targetPoint" />
          </mxGeometry>
        </mxCell>
        <mxCell id="SBfz5LhnC69azBQIG-Eq-13" value="" style="endArrow=diamondThin;endFill=0;endSize=24;html=1;rounded=0;entryX=0;entryY=1;entryDx=0;entryDy=0;exitX=1;exitY=0.5;exitDx=0;exitDy=0;" edge="1" parent="oHP2g1kHN_vgtaO5IObZ-3" source="SBfz5LhnC69azBQIG-Eq-8" target="SBfz5LhnC69azBQIG-Eq-1">
          <mxGeometry width="160" relative="1" as="geometry">
            <mxPoint x="130" y="180" as="sourcePoint" />
            <mxPoint x="290" y="180" as="targetPoint" />
          </mxGeometry>
        </mxCell>
        <mxCell id="SBfz5LhnC69azBQIG-Eq-14" value="" style="endArrow=diamondThin;endFill=0;endSize=24;html=1;rounded=0;entryX=0.5;entryY=1;entryDx=0;entryDy=0;exitX=1;exitY=0.5;exitDx=0;exitDy=0;" edge="1" parent="oHP2g1kHN_vgtaO5IObZ-3" source="SBfz5LhnC69azBQIG-Eq-9" target="SBfz5LhnC69azBQIG-Eq-1">
          <mxGeometry width="160" relative="1" as="geometry">
            <mxPoint x="160" y="140" as="sourcePoint" />
            <mxPoint x="320" y="140" as="targetPoint" />
          </mxGeometry>
        </mxCell>
        <mxCell id="SBfz5LhnC69azBQIG-Eq-15" value="" style="endArrow=diamondThin;endFill=0;endSize=24;html=1;rounded=0;entryX=1;entryY=1;entryDx=0;entryDy=0;exitX=1;exitY=0;exitDx=0;exitDy=0;" edge="1" parent="oHP2g1kHN_vgtaO5IObZ-3" source="SBfz5LhnC69azBQIG-Eq-10" target="SBfz5LhnC69azBQIG-Eq-1">
          <mxGeometry width="160" relative="1" as="geometry">
            <mxPoint x="210" y="150" as="sourcePoint" />
            <mxPoint x="370" y="150" as="targetPoint" />
          </mxGeometry>
        </mxCell>
        <mxCell id="SBfz5LhnC69azBQIG-Eq-16" value="" style="endArrow=diamondThin;endFill=0;endSize=24;html=1;rounded=0;entryX=1;entryY=0.5;entryDx=0;entryDy=0;exitX=0.5;exitY=0;exitDx=0;exitDy=0;" edge="1" parent="oHP2g1kHN_vgtaO5IObZ-3" source="SBfz5LhnC69azBQIG-Eq-2" target="SBfz5LhnC69azBQIG-Eq-1">
          <mxGeometry width="160" relative="1" as="geometry">
            <mxPoint x="270" y="160" as="sourcePoint" />
            <mxPoint x="430" y="160" as="targetPoint" />
          </mxGeometry>
        </mxCell>
        <mxCell id="SBfz5LhnC69azBQIG-Eq-23" value="Print invoice" style="ellipse;whiteSpace=wrap;html=1;" vertex="1" parent="oHP2g1kHN_vgtaO5IObZ-3">
          <mxGeometry x="260" y="360" width="90" height="40" as="geometry" />
        </mxCell>
        <mxCell id="SBfz5LhnC69azBQIG-Eq-17" value="" style="endArrow=none;html=1;rounded=0;entryX=0.5;entryY=0;entryDx=0;entryDy=0;entryPerimeter=0;exitX=1;exitY=0.5;exitDx=0;exitDy=0;" edge="1" parent="1" source="SBfz5LhnC69azBQIG-Eq-1" target="oHP2g1kHN_vgtaO5IObZ-2">
          <mxGeometry width="50" height="50" relative="1" as="geometry">
            <mxPoint x="660" y="270" as="sourcePoint" />
            <mxPoint x="710" y="220" as="targetPoint" />
            <Array as="points">
              <mxPoint x="705" y="220" />
            </Array>
          </mxGeometry>
        </mxCell>
        <mxCell id="SBfz5LhnC69azBQIG-Eq-18" style="rounded=0;orthogonalLoop=1;jettySize=auto;html=1;exitX=0;exitY=0.3333333333333333;exitDx=0;exitDy=0;exitPerimeter=0;entryX=0.987;entryY=0.321;entryDx=0;entryDy=0;entryPerimeter=0;strokeColor=none;endArrow=none;endFill=0;" edge="1" parent="1" source="oHP2g1kHN_vgtaO5IObZ-2" target="SBfz5LhnC69azBQIG-Eq-2">
          <mxGeometry relative="1" as="geometry" />
        </mxCell>
      </root>
    </mxGraphModel>
  </diagram>
  <diagram id="hGz29AQR7060OSxgqeKL" name="Page-2">
    <mxGraphModel grid="1" page="0" gridSize="10" guides="1" tooltips="1" connect="1" arrows="1" fold="1" pageScale="1" pageWidth="850" pageHeight="1100" math="0" shadow="0">
      <root>
        <mxCell id="0" />
        <mxCell id="1" parent="0" />
        <mxCell id="qoarrluWcXx-ZhlUwHNG-1" value="Classes:&lt;div&gt;Inventory&lt;br&gt;&lt;div&gt;Perishable Stock&lt;/div&gt;&lt;div&gt;VegetableItems&lt;/div&gt;&lt;div&gt;FruitItems&lt;/div&gt;&lt;div&gt;DrinkItems&lt;/div&gt;&lt;div&gt;TobaccoItems&lt;/div&gt;&lt;div&gt;Discounts&lt;/div&gt;&lt;div&gt;GUI Screen&lt;/div&gt;&lt;/div&gt;" style="text;strokeColor=none;fillColor=none;html=1;align=center;verticalAlign=middle;whiteSpace=wrap;rounded=0;fontSize=16;" vertex="1" parent="1">
          <mxGeometry x="50" y="-800" width="160" height="160" as="geometry" />
        </mxCell>
        <mxCell id="B_LRYLVYLVwRN08ml9xE-1" value="PerishableStock" style="swimlane;fontStyle=1;align=center;verticalAlign=top;childLayout=stackLayout;horizontal=1;startSize=26;horizontalStack=0;resizeParent=1;resizeParentMax=0;resizeLast=0;collapsible=1;marginBottom=0;whiteSpace=wrap;html=1;" vertex="1" parent="1">
          <mxGeometry x="40" y="-560" width="220" height="372" as="geometry">
            <mxRectangle x="250" y="-580" width="130" height="30" as="alternateBounds" />
          </mxGeometry>
        </mxCell>
        <mxCell id="B_LRYLVYLVwRN08ml9xE-2" value="-description: String" style="text;strokeColor=none;fillColor=none;align=left;verticalAlign=top;spacingLeft=4;spacingRight=4;overflow=hidden;rotatable=0;points=[[0,0.5],[1,0.5]];portConstraint=eastwest;whiteSpace=wrap;html=1;" vertex="1" parent="B_LRYLVYLVwRN08ml9xE-1">
          <mxGeometry y="26" width="220" height="26" as="geometry" />
        </mxCell>
        <mxCell id="B_LRYLVYLVwRN08ml9xE-5" value="-price: double" style="text;strokeColor=none;fillColor=none;align=left;verticalAlign=top;spacingLeft=4;spacingRight=4;overflow=hidden;rotatable=0;points=[[0,0.5],[1,0.5]];portConstraint=eastwest;whiteSpace=wrap;html=1;" vertex="1" parent="B_LRYLVYLVwRN08ml9xE-1">
          <mxGeometry y="52" width="220" height="26" as="geometry" />
        </mxCell>
        <mxCell id="B_LRYLVYLVwRN08ml9xE-6" value="-quantity: int" style="text;strokeColor=none;fillColor=none;align=left;verticalAlign=top;spacingLeft=4;spacingRight=4;overflow=hidden;rotatable=0;points=[[0,0.5],[1,0.5]];portConstraint=eastwest;whiteSpace=wrap;html=1;" vertex="1" parent="B_LRYLVYLVwRN08ml9xE-1">
          <mxGeometry y="78" width="220" height="26" as="geometry" />
        </mxCell>
        <mxCell id="B_LRYLVYLVwRN08ml9xE-16" value="-setDate: LocalDate&amp;nbsp;" style="text;strokeColor=none;fillColor=none;align=left;verticalAlign=top;spacingLeft=4;spacingRight=4;overflow=hidden;rotatable=0;points=[[0,0.5],[1,0.5]];portConstraint=eastwest;whiteSpace=wrap;html=1;" vertex="1" parent="B_LRYLVYLVwRN08ml9xE-1">
          <mxGeometry y="104" width="220" height="26" as="geometry" />
        </mxCell>
        <mxCell id="B_LRYLVYLVwRN08ml9xE-3" value="" style="line;strokeWidth=1;fillColor=none;align=left;verticalAlign=middle;spacingTop=-1;spacingLeft=3;spacingRight=3;rotatable=0;labelPosition=right;points=[];portConstraint=eastwest;strokeColor=inherit;" vertex="1" parent="B_LRYLVYLVwRN08ml9xE-1">
          <mxGeometry y="130" width="220" height="8" as="geometry" />
        </mxCell>
        <mxCell id="B_LRYLVYLVwRN08ml9xE-4" value="+getProduct(description)" style="text;strokeColor=none;fillColor=none;align=left;verticalAlign=top;spacingLeft=4;spacingRight=4;overflow=hidden;rotatable=0;points=[[0,0.5],[1,0.5]];portConstraint=eastwest;whiteSpace=wrap;html=1;" vertex="1" parent="B_LRYLVYLVwRN08ml9xE-1">
          <mxGeometry y="138" width="220" height="26" as="geometry" />
        </mxCell>
        <mxCell id="B_LRYLVYLVwRN08ml9xE-11" value="+setPrice(description)" style="text;strokeColor=none;fillColor=none;align=left;verticalAlign=top;spacingLeft=4;spacingRight=4;overflow=hidden;rotatable=0;points=[[0,0.5],[1,0.5]];portConstraint=eastwest;whiteSpace=wrap;html=1;" vertex="1" parent="B_LRYLVYLVwRN08ml9xE-1">
          <mxGeometry y="164" width="220" height="26" as="geometry" />
        </mxCell>
        <mxCell id="B_LRYLVYLVwRN08ml9xE-9" value="+getPrice(description)" style="text;strokeColor=none;fillColor=none;align=left;verticalAlign=top;spacingLeft=4;spacingRight=4;overflow=hidden;rotatable=0;points=[[0,0.5],[1,0.5]];portConstraint=eastwest;whiteSpace=wrap;html=1;" vertex="1" parent="B_LRYLVYLVwRN08ml9xE-1">
          <mxGeometry y="190" width="220" height="26" as="geometry" />
        </mxCell>
        <mxCell id="B_LRYLVYLVwRN08ml9xE-12" value="+getQuantity(description)" style="text;strokeColor=none;fillColor=none;align=left;verticalAlign=top;spacingLeft=4;spacingRight=4;overflow=hidden;rotatable=0;points=[[0,0.5],[1,0.5]];portConstraint=eastwest;whiteSpace=wrap;html=1;" vertex="1" parent="B_LRYLVYLVwRN08ml9xE-1">
          <mxGeometry y="216" width="220" height="26" as="geometry" />
        </mxCell>
        <mxCell id="B_LRYLVYLVwRN08ml9xE-13" value="+doSale(int amount)" style="text;strokeColor=none;fillColor=none;align=left;verticalAlign=top;spacingLeft=4;spacingRight=4;overflow=hidden;rotatable=0;points=[[0,0.5],[1,0.5]];portConstraint=eastwest;whiteSpace=wrap;html=1;" vertex="1" parent="B_LRYLVYLVwRN08ml9xE-1">
          <mxGeometry y="242" width="220" height="26" as="geometry" />
        </mxCell>
        <mxCell id="B_LRYLVYLVwRN08ml9xE-14" value="+reStock(int amount)" style="text;strokeColor=none;fillColor=none;align=left;verticalAlign=top;spacingLeft=4;spacingRight=4;overflow=hidden;rotatable=0;points=[[0,0.5],[1,0.5]];portConstraint=eastwest;whiteSpace=wrap;html=1;" vertex="1" parent="B_LRYLVYLVwRN08ml9xE-1">
          <mxGeometry y="268" width="220" height="26" as="geometry" />
        </mxCell>
        <mxCell id="B_LRYLVYLVwRN08ml9xE-15" value="+lowStock()" style="text;strokeColor=none;fillColor=none;align=left;verticalAlign=top;spacingLeft=4;spacingRight=4;overflow=hidden;rotatable=0;points=[[0,0.5],[1,0.5]];portConstraint=eastwest;whiteSpace=wrap;html=1;" vertex="1" parent="B_LRYLVYLVwRN08ml9xE-1">
          <mxGeometry y="294" width="220" height="26" as="geometry" />
        </mxCell>
        <mxCell id="B_LRYLVYLVwRN08ml9xE-17" value="+changeDate(date LocalDate)" style="text;strokeColor=none;fillColor=none;align=left;verticalAlign=top;spacingLeft=4;spacingRight=4;overflow=hidden;rotatable=0;points=[[0,0.5],[1,0.5]];portConstraint=eastwest;whiteSpace=wrap;html=1;" vertex="1" parent="B_LRYLVYLVwRN08ml9xE-1">
          <mxGeometry y="320" width="220" height="26" as="geometry" />
        </mxCell>
        <mxCell id="B_LRYLVYLVwRN08ml9xE-18" value="+toString(desc, price, quantity, date)" style="text;strokeColor=none;fillColor=none;align=left;verticalAlign=top;spacingLeft=4;spacingRight=4;overflow=hidden;rotatable=0;points=[[0,0.5],[1,0.5]];portConstraint=eastwest;whiteSpace=wrap;html=1;" vertex="1" parent="B_LRYLVYLVwRN08ml9xE-1">
          <mxGeometry y="346" width="220" height="26" as="geometry" />
        </mxCell>
      </root>
    </mxGraphModel>
  </diagram>
</mxfile>
